<?xml version="1.0" encoding="utf-8"?>
<!-- Svg Vector Icons : http://www.onlinewebfonts.com/icon -->
<!DOCTYPE svg PUBLIC "-//W3C//DTD SVG 1.1//EN" "http://www.w3.org/Graphics/SVG/1.1/DTD/svg11.dtd">
<svg version="1.1" xmlns="http://www.w3.org/2000/svg" xmlns:xlink="http://www.w3.org/1999/xlink" x="0px" y="0px" viewBox="0 0 1000 1000" enable-background="new 0 0 1000 1000" xml:space="preserve">
<metadata> Svg Vector Icons : http://www.onlinewebfonts.com/icon </metadata>
<g><path d="M373.4,140.7c0,72.2,58.5,130.7,130.7,130.7c72.2,0,130.7-58.5,130.7-130.7C634.8,68.5,576.2,10,504.1,10C431.9,10,373.4,68.5,373.4,140.7z M650.6,255.5c0,72.2,58.5,130.7,130.7,130.7c72.2,0,130.7-58.5,130.7-130.7c0-72.2-58.5-130.7-130.7-130.7C709.1,124.8,650.6,183.3,650.6,255.5z M830.8,532.7c0,36.1,29.3,65.3,65.3,65.3c36.1,0,65.3-29.2,65.3-65.3s-29.3-65.3-65.3-65.3C860,467.3,830.8,496.6,830.8,532.7z M715.9,809.9c0,36.1,29.3,65.3,65.3,65.3s65.3-29.3,65.3-65.3c0-36.1-29.3-65.3-65.3-65.3S715.9,773.8,715.9,809.9z M438.8,924.7c0,36.1,29.3,65.3,65.3,65.3c36.1,0,65.3-29.2,65.3-65.3s-29.3-65.3-65.3-65.3C468,859.3,438.8,888.6,438.8,924.7z M161.6,809.9c0,36.1,29.3,65.3,65.3,65.3s65.3-29.3,65.3-65.3c0-36.1-29.3-65.3-65.3-65.3S161.6,773.8,161.6,809.9z M128.9,255.5c0,54.1,43.9,98,98,98c54.1,0,98-43.9,98-98c0-54.1-43.9-98-98-98C172.8,157.5,128.9,201.4,128.9,255.5z M38.6,532.7c0,40.6,32.9,73.5,73.5,73.5c40.6,0,73.5-32.9,73.5-73.5c0-40.6-32.9-73.5-73.5-73.5C71.5,459.2,38.6,492.1,38.6,532.7L38.6,532.7z"/></g>
</svg>